<svg class="svg-icon" style="width: 1em; height: 1em;vertical-align: middle;fill: currentColor;overflow: hidden;" viewBox="0 0 1024 1024" version="1.1" xmlns="http://www.w3.org/2000/svg">
    <style>
        .p { fill: #2C2C2C }
        @media (prefers-color-scheme: dark) { fill: #eeeeee }
    </style>
    <path class="p" d="M756.03 739.942a26.081 26.081 0 0 1-26.056-26.05 26.086 26.086 0 0 1 26.055-26.061h61.686a13.066 13.066 0 0 0 13.046-13.05V352.72a13.066 13.066 0 0 0-13.046-13.055H206.3a13.097 13.097 0 0 0-13.05 13.046V674.78a13.071 13.071 0 0 0 13.05 13.051h61.624a26.086 26.086 0 0 1 26.056 26.06 26.081 26.081 0 0 1-26.056 26.051H206.3c-35.927 0-65.157-29.23-65.157-65.162V352.722c0-35.932 29.23-65.162 65.157-65.162h611.415c35.927 0 65.157 29.23 65.157 65.162V674.78c0 35.932-29.23 65.162-65.157 65.162H756.03z" />
    <path class="p" d="M328.259 879.892c-35.927 0-65.158-29.23-65.158-65.162V572.006a26.081 26.081 0 0 1 26.051-26.05 26.076 26.076 0 0 1 26.05 26.05V814.73a13.071 13.071 0 0 0 13.051 13.051h368.37a13.071 13.071 0 0 0 13.05-13.05V570.188a26.086 26.086 0 0 1 26.06-26.056 26.081 26.081 0 0 1 26.051 26.056V814.73c0 35.932-29.23 65.162-65.162 65.162H328.26z m-39.537-540.226a26.081 26.081 0 0 1-26.05-26.05V208.04c0-35.927 29.224-65.157 65.156-65.157h370.555c35.933 0 65.163 29.225 65.163 65.157v105.574a26.117 26.117 0 0 1-26.071 26.05 26.086 26.086 0 0 1-26.056-26.045V208.041a13.066 13.066 0 0 0-13.046-13.05h-370.55a13.071 13.071 0 0 0-13.05 13.05v105.574a26.076 26.076 0 0 1-26.051 26.05z" />
    <path class="p" d="M386.135 737.178a23.322 23.322 0 0 1-23.29-23.291 23.322 23.322 0 0 1 23.29-23.307h251.74a23.322 23.322 0 0 1 23.296 23.307 23.316 23.316 0 0 1-23.296 23.29h-251.74zM254.531 595.026c-14.367 0-26.051-11.689-26.051-26.056s11.689-26.05 26.05-26.05h514.955a25.85 25.85 0 0 1 18.247 7.864 25.861 25.861 0 0 1 7.394 18.519 25.907 25.907 0 0 1-25.687 25.718H254.53z m475.704-126.142a33.546 33.546 0 0 1-33.505-33.505c0-18.473 15.032-33.5 33.505-33.5s33.505 15.027 33.505 33.5a33.541 33.541 0 0 1-33.505 33.505z" />
</svg>